<?xml version="1.0" encoding="UTF-8"?>
<svg width="14px" height="16px" viewBox="0 0 14 16" version="1.1" xmlns="http://www.w3.org/2000/svg" xmlns:xlink="http://www.w3.org/1999/xlink">
    <!-- Generator: sketchtool 62 (101010) - https://sketch.com -->
    <title>EC27E26D-69F0-4043-B8E8-FB0498C7C363</title>
    <desc>Created with sketchtool.</desc>
    <g id="Page-1" stroke="none" stroke-width="1" fill="none" fill-rule="evenodd">
        <g id="icons" transform="translate(-43.000000, -150.000000)" fill="#E71316">
            <g id="icon_sequence" transform="translate(41.000000, 149.000000)">
                <g id="Combined-Shape">
                    <path d="M4,7 L4,6 L2,6 L2,3 L8,3 L8,1 L16,1 L16,4 L14,4 L14,5 L16,5 L16,15 L10,15 L10,17 L2,17 L2,7 L4,7 Z M9,8 L3,8 L3,16 L9,16 L9,8 Z M15,6 L9,6 L9,7 L10,7 L10,14 L15,14 L15,6 Z M9,4 L3,4 L3,5 L9,5 L9,4 Z M15,2 L9,2 L9,3 L15,3 L15,2 Z"></path>
                </g>
            </g>
        </g>
    </g>
</svg>